<svg xmlns="http://www.w3.org/2000/svg" viewBox="0 0 400 400" fill-rule="evenodd"><path fill="#26221f" d="M64.2 58.5l-1.6 1.7 1.7-1.6a17.9 17.9 0 0 0 1.7-1.7c0-.3-.3 0-1.8 1.6m271-.3c.8.8 1.4 1.4 1.6 1.4.1 0-.4-.6-1.2-1.4a8.7 8.7 0 0 0-1.6-1.4c-.1 0 .4.6 1.2 1.4m-277 6.3l-1.6 1.7 1.7-1.6a17.9 17.9 0 0 0 1.7-1.7c0-.3-.4 0-1.8 1.6m283.4.1c.8.8 1.4 1.4 1.6 1.4.1 0-.4-.6-1.2-1.4a8.7 8.7 0 0 0-1.6-1.4c-.1 0 .4.6 1.2 1.4M167.2 73c-6.7.6-10.5 1.6-20.2 5.2-4.6 1.7-5.8 2.5-6.8 4.3-.8 1.6-1 1 .7 6.3.8 2.7.2 3.6-3 4.8a125 125 0 0 0-28.7 16.5c-7 5.7-8.6 7.2-12.5 11.7-5 5.7-6.7 9-6.4 11.4.8 5 .8 4.5-.8 5.5a93 93 0 0 0-18.8 19.1l-7 11.3c-3.7 7.4-8.2 21.5-8.2 25.8 0 2.8-.3 2.3 4 7.5 3.2 4 3 3.4 1.6 9.4-3.3 12.8-4.4 34.4-2 39 1.6 3 9.7 2.2 20.2-2.2l7.2-3a61.2 61.2 0 0 0 12.6-7c5.4-4 6-4 10-.2 3 2.7 4.7 3.4 7 2.8 5.5-1.6 19.6-12.4 30.6-23.4a96 96 0 0 0 14.7-17.4l2-3 1.8 2c4.7 5.3 6.8 5.2 14.2-.7 12.4-10 16-13.3 21.2-20.3 4.6-6 5.8-8.6 9.4-18.8 1.8-5.2 1-4.8 9.5-5 9.2-.2 9-.2 11.4-7.8 2.2-6.8 2-27.7-.2-35.8a35.8 35.8 0 0 1-.8-4.2l-.3-2 2.5-1c6.7-2.4 23.5-1.7 32 1.3 15.6 5.5 26.3 14.5 29.7 25 2.2 6.7.8 18.7-3 25.4a3.2 3.2 0 0 0-.4 1.3c0 .3-.3.8-.6 1s-.6.8-.6 1.3-.1.8-.3.8c-.6 0-1.2 2-1 3 .1.7.1.8-.2.4-.4-.5-1.5 1-2.4 3a95 95 0 0 1-6.3 9.4l-6.3 9a163.9 163.9 0 0 1-6.7 9.4 62.4 62.4 0 0 0-4.5 6.5 70 70 0 0 1-4.6 6.8 95 95 0 0 0-13.8 29.1l-2.4 7.8c-4.3 13.6-5.6 27-3.4 36l1.7 7.4c.5 2.7 1.7 6 3 9.4.5 1.2.5 1.2 1 .3.8-1.4 5.7-14.8 5.7-15.5a51 51 0 0 1 2.4-8.6c.4-1 1.2-4 1.8-6.8a168 168 0 0 1 4.8-18.6c4-13 5.4-16.3 9-21.3a61 61 0 0 0 3.6-5.9c3-5.6 7.6-12.6 13.4-20.4l6.6-9c.5-.8 2.2-3 3.8-5a73.3 73.3 0 0 0 5.2-8l5-8.6a66.8 66.8 0 0 0 8-19.6l1.5-6-.2-7.4c-.4-12.6-1.3-15.5-7.4-23.7a63 63 0 0 0-15.7-15.2 124 124 0 0 0-27.6-11.3 65 65 0 0 0-37.9 1.6c-4.6 1.7-5 1.7-6.7 0-14-12.5-29-16.8-51-14.8m18 8.4a54 54 0 0 1 26.1 13c3.5 4 2.4 5-8 8.8a121 121 0 0 0-38.5 29c-1 1-1.7 2-2 2-.2.1-.3.3-.3.6 0 .3-.5 1-1.2 1.8-.7.7-1.2 1.4-1.2 1.5 0 .3-2.5 4-3 4.3-.2.2-.2.3-.1.3.3 0 5.7-4 6.5-5 .7-.8 5.5-4.8 7.2-6a21.9 21.9 0 0 0 1.8-1.4 122 122 0 0 1 10.2-7.2l8.8-6c1-.6 2.8-1.8 4.2-2.6l6.4-4c7.5-5 13.8-8 15.2-7.3 3.4 1.5 7 13 7.3 23.5.6 18.4-.3 20.3-10 20.6-9 .3-9.3.5-11.3 7-2 6-5.6 13.2-9.2 17.6a38 38 0 0 0-2.6 3.8c-3 5-10.4 12.4-16.6 16.6-3 2-5.3 1.2-8.3-2.7-3-3.7-4-4-5.3-1.8a106.3 106.3 0 0 1-7 9.7 132 132 0 0 0-4.2 5.2 167 167 0 0 1-20.8 20.4 107.6 107.6 0 0 0-6.6 5.4c-6.6 6.2-7.4 6.4-11.6 2.2-4.5-4.4-5.4-4.5-12-.5a265.2 265.2 0 0 1-16.1 9.3l-5 2.6c-5.8 3-11.4 4.2-13 2.5l-1-1 .2-8.7a85 85 0 0 1 3.3-24.1c2.4-8.8 2.3-8.8-2.4-13.8-2.7-3-3.6-4.8-3.2-6.8 2.6-12.2 5.7-19.2 12-26.6l4.2-5.2a147 147 0 0 1 16.4-15.8c3.7-2.7 4.3-4 3.5-7-.8-3.2-.8-3.7 1-6a95 95 0 0 1 18.9-18.5l15-9.5 6.8-3a157 157 0 0 0 6.9-2.9l4-2v-1.7c0-1-.4-2.7-.8-3.8-1.2-3.2-1-3.5 5.4-5.8 5.2-2 22.5-2.7 30-1.5m-41.4 59l-.8 1 1-1c1-1 1.3-1.2.8-1.2-.2 0-.7.5-1 1m-25.3 13.4l-1.2 1.3 1.3-1.2a10 10 0 0 0 1.3-1.3c0-.3-.3 0-1.4 1.2m-1.2 4.4l-1.2 1.3 1.3-1.2c1.2-1 1.5-1.4 1.2-1.4-.1 0-.7.6-1.3 1.3m-8.4 4.4l-1.6 1.7 1.7-1.6a17.9 17.9 0 0 0 1.7-1.7c0-.3-.3 0-1.8 1.6m-8 8.4c-1.8 2-4.4 5.8-4 6 1 1 5.7-4.3 5-5.5-.4-.7-.3-1 .2-1.6.4-.4.6-.8.5-.8-.1 0-1 .8-1.8 1.7m-17.2 32.7c-.6.7-1 1.3-1 1.3.1.1.7-.5 1.3-1.2 1.4-1.6 1.2-1.7-.3-.1M58 335.4c.8.8 1.5 1.4 1.6 1.4.1 0-.4-.6-1.2-1.4a8.7 8.7 0 0 0-1.6-1.4c-.1 0 .4.6 1.2 1.4m283.8-.1l-1.2 1.3 1.3-1.2a10 10 0 0 0 1.3-1.3c0-.3-.3 0-1.4 1.2m-277.4 6.5c.8.8 1.4 1.4 1.6 1.4.1 0-.4-.6-1.2-1.4a8.7 8.7 0 0 0-1.6-1.4c-.1 0 .4.6 1.2 1.4m270.6.3l-1.2 1.3 1.3-1.2a10 10 0 0 0 1.3-1.3c0-.3-.3 0-1.4 1.2"/><path fill="#74fc04" d="M162 81.4c-5.4.7-12.8 3.4-12.8 4.7 0 .3.4 1.4.8 2.6.4 1.2.8 3 .8 3.8v1.7l-4 2a157 157 0 0 1-6.9 2.9c-1.5.6-4.6 2-6.8 3-3.7 1.8-5.4 3-15 9.5a95 95 0 0 0-18.9 18.5c-1.8 2.3-2 2.8-1 6 .8 3 .3 4.2-3.4 7a147 147 0 0 0-16.4 15.8 172.4 172.4 0 0 1-4.2 5.2c-6.3 7.5-9.4 14.4-12 26.6-.4 2 .5 4 3.2 6.8 4.8 5 4.8 5 2.4 13.8a85 85 0 0 0-3.3 24.1l-.2 8.7 1 1c1.6 1.6 7.3.6 13-2.5l21-12c6.5-4 7.4-4 12 .5 4.2 4 5 4 11.6-2.2a107.6 107.6 0 0 1 6.6-5.4 167 167 0 0 0 20.8-20.4l11.2-15c1.4-2.3 2.4-2 5.3 1.8 3 4 5.4 4.7 8.3 2.7 6.2-4.2 13.7-11.7 16.6-16.6l2.6-3.8c3.6-4.5 7.4-11.6 9.2-17.6 2-6.5 2.3-6.7 11.3-7 9.6-.3 10.5-2.2 10-20.6-.3-10.5-4-22-7.3-23.5-1.5-.7-7.7 2.3-15.2 7.3l-6.4 4a45.6 45.6 0 0 0-4.2 2.6c-2.7 2-5.5 3.8-8.8 6-3 1.8-9.6 6.6-10.2 7.2-.1.1-1 .8-1.8 1.4-1.7 1.2-6.5 5.3-7.2 6-.7.8-6.2 5-6.5 5-.2 0-.1-.1.1-.3.5-.4 3-4 3-4.3 0-.1.5-.8 1.2-1.5s1.2-1.5 1.2-1.7c0-.2.1-.5.3-.6.2-.1 1-1 2-2 7.8-10 28-25 38.5-29 10.3-3.8 11.4-5 8-8.8-9.5-10.5-28.7-15.6-49.3-13m8 27.4c1 1 .5 1.8-1.6 2.5-2.2.7-6 2.4-12 5-8 3.7-15.3 6.4-15.2 5.6A115 115 0 0 1 167 109c2.6-.7 2.4-.7 3-.1m24.2 24c0 4.8-2.7 10.7-7 14.8-3 3-3 2.3-.2-2.5 2.4-4 4-8.2 4.4-11.6.5-3.6 2.7-4 2.7-.6m-49.7 7.2a6.7 6.7 0 0 1-2.4 1.4c-8.3 2.7-20 11.7-36.6 28-8.3 8.2-10.4 9.5-6.6 4 8.4-12 32-31 42-33.5 4.7-1.2 4.6-1.2 3.5 0m18.3 23c.2 1-8 8-9.5 8-.1 0 1.6-2 4-4.4 4-4.2 5.3-5 5.5-3.6M134.4 177c2 2.6-16.2 23.3-24 27-3.5 1.7-2.6-.1 2.7-5 7.6-7 13.4-13.4 17.4-19.4 2.2-3.4 3-3.8 3.8-2.7M97 195c.5 1.4 1 1-7 6-8.5 5.4-9 5.4-4 .4 7.2-7.4 10-9 11-6.4"/><path fill="#fbfbfb" d="M187.8 4.5C98.5 9.7 23 77 7.2 165c-24 134.7 93 252 227.8 227.8 79.8-14.3 143.5-78 157.8-157.8a196 196 0 0 0-205-230.5M185 72.8c8.3.6 18.5 3.7 22.5 7a116 116 0 0 0 5.1 3.6l5.8 4.3c1.7 1.6 1.8 1.6 3 1.2a54 54 0 0 1 25.6-4.7 82 82 0 0 1 30.4 6.7c10.6 5 13 6.3 14.6 7.5l3.4 2.6a57 57 0 0 1 17 22.9c1.6 7.2 1.7 19.4.2 25.5a49.6 49.6 0 0 0-1 4.5c0 1.3-4.3 10.8-6 13.6-1 1.7-3.3 5.6-5 8.7a80.4 80.4 0 0 1-5.8 9.3 194.7 194.7 0 0 0-4 5.4l-20.2 29.7a62.8 62.8 0 0 1-3.6 5.9 46.5 46.5 0 0 0-5.8 11.3l-6.5 21.8-1.3 6.8a51.6 51.6 0 0 1-1.8 7.2 64.6 64.6 0 0 0-2 6.7c-1.5 6.4-6.2 18.4-7 18a107 107 0 0 1-4.8-15.6l-1.2-5.5c-1.4-5.3.4-21 3.5-31.3 6.3-21 11-32 17-39a42 42 0 0 0 5.4-8 44.2 44.2 0 0 1 3.8-5.6 82.7 82.7 0 0 0 7.4-10.6 51 51 0 0 1 2.9-4.5c3.7-4.5 6.3-8.5 9.8-15l2.8-5c12.8-23 3.5-42.7-25-52.8a61 61 0 0 0-32-1.1l-2.3 1 .8 3.6c3.2 15.2 2.7 33-1.2 42.2-1.4 3.3-1.6 3.3-10 3.6-8.4.2-7.7-.2-9.5 5-3.6 10.2-4.8 12.7-9.4 18.8-5.2 7-8.8 10.4-21.2 20.3-7.4 6-9.5 6-14.2.7l-1.8-2-2 3c-4.8 7-7.2 10-14.7 17.4-11 11-25.2 21.8-30.6 23.4-2.2.6-4-.1-7-3-3.7-3.3-4.5-3.3-10 .7-9.8 7.2-33 15.6-37.8 13.7a4.4 4.4 0 0 1-2.2-1.8c-2.4-4.6-1.3-26.3 2-39 1.5-6 1.6-5.4-1.6-9.4-4.2-5.2-4-4.6-4-7.5 0-4.3 4.5-18.4 8.2-25.8 1-2.3 2.5-4.5 7-11.3 3.5-5.4 14.8-17 18.8-19 1.7-1 1.6-.5.8-5.5-.5-3 7-13.6 13.4-19 9.3-7.8 14.8-11.5 22-15 9.3-4.6 12.3-6 13.4-6.2 2.2-.5 2.5-2.3 1-6l-1-2.5 1-1.7c1.4-2.6 4.3-4 17.5-8.2 4.5-1.4 18-2.2 27.5-1.6m69.6 227c3.8 2.8 6.3 12 7.4 26.2.8 10.6-3 17.3-11.8 21.3-8.4 3.8-22-3.4-27.3-14.3l-1.5-3.2-.2-7c-.3-13.4 5.3-23.2 13.4-23.2 2 0 3.2 2.7 5 11.2 1 5 1.6 7.2 2 7.2.2 0 .3-.2.3-.4 0-.2.7-2 1.6-4s1.8-4.3 2-5.2c.8-2.8 3.6-8.3 4.7-9.2 1.2-1 2.4-.8 4.3.6"/><path d="M182.6.6A200.2 200.2 0 0 0 1.8 227.8c14.4 104.8 109.6 180.8 215 171.6a200 200 0 0 0 178-245.4C372.6 58 281-8.2 182.6.6M221.2 5a196 196 0 0 1 172.2 227.8c-19.7 118.8-143 192-257.3 152.6C40.7 352.7-14.4 251.8 9.4 153.7c20.2-83 91-142.7 177.2-149.4a391 391 0 0 1 34.6.7m-55.8 104.6c-2 .7-6.6 2.8-15.2 7-4.3 2-8.6 4.7-8.6 5.3 0 .7 6.7-1.8 15-5.6l10.5-4.5c3-1 3.5-1.5 3-2.3-.3-.8-2.3-.8-5 .1m26.8 21.5c-.2.2-.5 1.5-.7 3-.3 3.2-1.4 6-4.4 11.4-2.7 4.8-2.5 5.2.7 1.7 5.3-5.7 9-19.2 4.4-16m-51.7 9.3c-7.7 2-18.7 10-31.8 22.8-6.4 6.3-7.2 7.4-6.7 8.5.4.8.8.6 6-4.5 14-13.7 24-21.5 32-24.8 5.4-2.2 5.7-3.3.5-2M160 164l-6.5 6.8 2-1.2c2.4-1.3 7.3-5.6 7.3-6.4 0-1.3-1.3-1-3 .7M130.6 180a62.7 62.7 0 0 1-2.6 3.7 47.1 47.1 0 0 0-2.1 2.6c-1.7 2.2-5.8 6.4-13.8 14-1.8 1.8-3.3 3.4-3.3 3.6 0 2.5 10.7-6.3 18.5-15.2 4.4-5 8-10.8 7-11.5-1.2-1-1.5-.8-3.7 2.6m-38.2 15.7c-2.4 1.8-9.5 9.2-9 9.2.5 0 11.3-7 12.7-8 1.2-1 1.2-1 .5-2-1-1.4-1.4-1.3-4.3 1"/><path fill="#6a4225" d="M190 4.3a9 9 0 0 0 2.2 0c.6-.1.1-.2-1-.2s-1.7.1-1 .2m17.6 0a9 9 0 0 0 2.2 0c.6-.1.1-.2-1-.2s-1.7.1-1 .2m130.7 57l2 2c.3 0 0-.4-1.8-2l-2-1.8 1.8 2m-277.2.2L59.8 63l1.5-1.4c1.4-1.3 1.7-1.6 1.4-1.6a13 13 0 0 0-1.5 1.5M187 73c.4.1 1 .1 1.4 0 .4-.1.1-.2-.7-.2s-1 .1-.7.2m16 4.3c.4.4 2.8 1.5 2.8 1.3 0-.2-2.2-1.4-2.7-1.4-.1 0-.2.1-.1.1M206 79c0 .1.6.6 1.3 1 .8.6 1 .7.7.2-.5-.6-2-1.6-2-1.3m4.2 3c.2.2 2 1.5 3.8 2.8a40 40 0 0 1 4.2 3.2c.4.5 1 1 1.2 1 .5 0-2.4-2.5-5.3-4.5-2.8-2-4.4-3-4-2.4m28.5 2.4c.5.1 1.3.1 1.8 0s.1-.2-1-.2-1.4.1-1 .2m8 0c.7.1 1.8.1 2.4 0 .6-.1 0-.2-1.3-.2s-1.8.1-1 .2m6.4.4c.5.1 1.3.1 1.8 0 .5-.1.1-.2-1-.2s-1.4.1-1 .2m42.2 16.4c.3.6 4.3 4 4.3 3.6 0-.1-1-1-2.3-2-1.3-1-2.2-1.7-2-1.5M107.8 111l-1.2 1.3 1.3-1.2c1.2-1 1.5-1.4 1.2-1.4-.1 0-.6.6-1.3 1.3m197.2.4a8 8 0 0 0 1.3 1.5c.3 0-1.4-2.3-2-2.7-.2-.1.1.4.7 1.2M103.8 114l-1.2 1.3 1.3-1.2a10 10 0 0 0 1.3-1.3c0-.3-.3 0-1.4 1.2m128.7 11c0 1 .1 1.4.2 1 .1-.5.1-1.3 0-1.8s-.2-.1-.2 1m80.8 5.4c0 1 .1 1.2.2.7.1-.5.1-1.2 0-1.6-.1-.4-.2 0-.2 1m-19.5 1c1.7 7.2-.3 18.4-5 26.6l-2.7 5c-3.5 6.5-6 10.5-9.8 15-.6.7-2 2.7-3 4.5a82.7 82.7 0 0 1-7.4 10.6 44.2 44.2 0 0 0-3.8 5.6 42 42 0 0 1-5.4 8c-2 2.2-5.4 8-5 8.3.1.1.8-1 1.7-2.6.8-1.5 2.4-3.8 3.6-5.2a69 69 0 0 0 4.6-6.8 62.4 62.4 0 0 1 4.5-6.5 163 163 0 0 0 6.7-9.4l6.3-9c1.8-2.3 6-8.3 6.3-9.4.8-2 2-3.5 2.4-3 .3.4.3.3.2-.4-.2-1 .4-3 1-3 .2 0 .3-.3.3-.7s.3-1 .6-1.2.6-.7.6-1c0-.3.2-1 .4-1.2 3.3-6 5.2-20 3.3-24l-.5-1 .2 1M4 191.2c0 1.2.1 1.7.2 1a9 9 0 0 0 0-2.2c-.1-.6-.2-.1-.2 1m391.6 0c0 1.2.1 1.7.2 1a9 9 0 0 0 0-2.2c-.1-.6-.2-.1-.2 1M4 208.8c0 1.2.1 1.7.2 1a9 9 0 0 0 0-2.2c-.1-.6-.2-.1-.2 1m391.6 0c0 1.2.1 1.7.2 1a9 9 0 0 0 0-2.2c-.1-.6-.2-.1-.2 1M249 220c-2.3 4.7-4 8.8-6 15.5l-5.2 17.8c-.2 1.5-.3 1.8 2.8-8.6 3.8-12.7 7-21.5 8.4-23.7.7-1.2 2.6-5.3 2.3-5.3-.1 0-1 2-2.3 4.3m-146.3 16c-.8.4-1.6 1-1.7 1.2s.3 0 1-.4a5.6 5.6 0 0 1 2.3-.8c.5 0 .8-.2.7-.4-.3-.5-.5-.5-2.3.4m-5.4 3.8l-1 1 1.3-1c.7-.5 1.3-1 1.3-1 0-.3-.4-.1-1.5 1M92 243c-1.5.8-1.4 1.2.1.4.7-.3 1.2-.7 1.2-.8 0-.3 0-.2-1.3.4m-13.5 5.8c-.8.4-1.2.8-1 .8s1-.3 1.8-.8 1.2-.8 1-.8-1 .3-1.8.8M237 259.6c0 1.2.1 1.7.2 1a9 9 0 0 0 0-2.2c-.1-.6-.2-.1-.2 1m-.4 4c0 1 .1 1.4.2 1 .1-.5.1-1.3 0-1.8s-.2-.1-.2 1m-.4 8.6c0 2.4.1 3.4.2 2a43 43 0 0 0 0-4.4c-.1-1-.2-.1-.2 2.3m.7 7c0 .5.2 1.3.4 1.8.3.6.3.3.1-.8-.3-2-.6-2.4-.5-1m13.5 20c-1 1-4 6.5-4.7 9.2-.3 1-1.2 3.3-2 5.3a29 29 0 0 0-1.6 3.9c0 .3-.2.4-.3.4-.4 0-1-2-2-7.2-1.7-8.5-3-11.2-5-11.2-8 0-13.7 9.8-13.4 23.2l.2 7 1.5 3.2c7.6 16 26.5 20 35.4 7.8 4.3-6 4.7-10.5 2.4-25.6-1.8-11.7-6.6-19-10.4-16m88 39.5l-2.2 2.3 4.5-4.6c-.1 0-1 1-2.3 2.3m-277.2-.2l2 2c.3 0 0-.4-1.8-2l-2-1.8 1.8 2M190 396a9 9 0 0 0 2.2 0c.6-.1.1-.2-1-.2s-1.7.1-1 .2m17.6 0a9 9 0 0 0 2.2 0c.6-.1.1-.2-1-.2s-1.7.1-1 .2"/></svg>