<svg xmlns="http://www.w3.org/2000/svg" width="400" height="400">
  <defs>
    <linearGradient id="a" x1="1" x2="-.12716763" y2=".8265896">
      <stop offset="0%" stop-color="#2C2F33"/>
      <stop offset="95%" stop-color="#7289DA"/>
    </linearGradient>
  </defs>
  <path fill="#2c2f33" d="M-.500048-.000023H400.16671v400.333389H-.500048z"/>
  <path fill="url(#a)" d="M39.566405 229.132848l88.075903-149.458032 113.008158.542006-44.173453 115.718186-62.872644-9.214094-95.121975 44.715458"/>
  <path fill="#7289DA" fill-rule="evenodd" d="M182.227 25.013c-8.164.816-15.547 1.593-16.407 1.727-1.434.223-30.512 9.039-33.203 10.067-.644.246-7.851 4.136-16.015 8.644l-14.844 8.196-12.891 10.702-12.89 10.701-10.938 13.024-10.937 13.024-8.051 14.978L38 131.055l-5.139 16.485-5.139 16.486-1.822 17.686-1.822 17.686 1.83 17.977 1.83 17.977 5.212 16.406 5.211 16.406 7.97 14.782 7.971 14.783 11.002 13.342 11.002 13.343 12.022 9.961c14.661 12.147 12.655 10.8 29.45 19.783 16.374 8.757 12.606 7.208 32.031 13.165l15.821 4.852 17.452 1.674 17.451 1.673 15.556-1.454c20.3-1.897 19.971-1.834 36.715-7.084 17.817-5.588 14.387-4.157 30.209-12.602 16.654-8.891 15.469-8.109 28.906-19.071 13.605-11.101 14.097-11.599 25.658-26l9.303-11.587 7.97-14.78 7.97-14.78 5.212-16.406 5.211-16.406 1.83-17.977 1.83-17.977-1.822-17.686-1.822-17.686-5.139-16.486-5.139-16.485-8.051-14.981-8.05-14.98-10.642-12.986-10.641-12.986-13.205-10.746-13.205-10.746-14.885-8.237c-16.366-9.057-13.823-7.989-34.493-14.491-13.385-4.211-12.892-4.118-31.418-5.899-19.276-1.854-17.315-1.854-35.964.01m109.568 49.206c.108.537.883 2.031 1.722 3.32 1.671 2.57 5.83 9.049 10.623 16.549 1.698 2.656 3.838 5.996 4.756 7.422 2.292 3.558 2.241 3.292 1.141 6.012-1.545 3.82-6.014 15.613-6.326 16.697-.155.537-.503 1.504-.772 2.148-.269.645-.798 1.963-1.175 2.93-1.114 2.856-1.355 3.469-1.725 4.394-.193.484-1.531 4.043-2.972 7.911-1.441 3.867-2.846 7.558-3.121 8.203-.275.644-.627 1.611-.782 2.148-.155.537-.509 1.504-.786 2.149-.276.644-1.158 2.929-1.958 5.078-1.865 5.007-1.864 5.004-3.053 8.008-.553 1.396-1.904 5-3.002 8.007-1.098 3.008-2.222 5.996-2.498 6.641-.579 1.349-1.146 2.845-4.743 12.5-1.441 3.867-2.878 7.624-3.194 8.348-.316.725-.719 1.779-.896 2.344-.177.565-1.67 4.542-3.317 8.839-1.647 4.297-3.578 9.395-4.292 11.328-.714 1.934-2.533 6.763-4.043 10.732-1.509 3.969-2.678 7.282-2.597 7.364.185.185 13.557 1.442 23.637 2.222 4.189.324 9.463.757 11.719.961 2.255.204 6.562.563 9.57.797 6.895.539 6.787.432 4.947 4.879-5.671 13.704-12.824 22.449-19.35 23.655-2.191.405-12.996-.316-18.41-1.229-1.289-.217-3.31-.56-4.492-.763-1.181-.202-4.433-.744-7.226-1.204-2.793-.46-5.782-.973-6.641-1.14-2.91-.565-5.848-1.132-8.984-1.736-1.719-.331-3.916-.781-4.883-1-.967-.219-2.468-.5-3.335-.623l-1.577-.224-1.89 4.241c-1.04 2.332-2.296 5.119-2.791 6.193-.496 1.075-2.074 4.59-3.508 7.813-3.661 8.23-3.928 8.822-6.281 13.986-1.157 2.536-2.102 4.685-2.102 4.775 0 .09-.596 1.387-1.324 2.882l-1.323 2.719.737 2.235c2.843 8.618-1.487 19.069-9.494 22.916-3.87 1.859-4.697 2.049-8.909 2.049-4.229 0-5.036-.187-8.978-2.084-13.213-6.359-13.549-26.244-.568-33.687 2.317-1.329 2.126-.859 7.288-17.94.227-.752.557-1.718.732-2.148.176-.43.951-2.891 1.723-5.469.772-2.578 1.643-5.39 1.937-6.25.293-.859 1.182-3.672 1.976-6.25.795-2.578 1.681-5.331 1.971-6.118l.526-1.43-3.597-2.047c-1.978-1.126-4.211-2.391-4.963-2.811-.752-.421-2.334-1.342-3.516-2.048-1.181-.706-4.345-2.592-7.031-4.191-18.473-10.998-27.822-18.004-29.723-22.272-2.254-5.062-.274-20.377 3.888-30.079.898-2.093 1.182-1.98 8.29 3.286 3.527 2.613 8.346 6.184 10.709 7.934 4.426 3.279 11.614 8.607 19.141 14.187 4.113 3.049 4.311 3.148 4.636 2.317.187-.478.481-1.22.653-1.65 1.103-2.759 9.987-26.07 10.421-27.343.292-.86 1.396-3.76 2.453-6.446 1.057-2.685 3.174-8.222 4.704-12.304 1.53-4.082 3.576-9.413 4.546-11.847.971-2.434 2.247-5.773 2.837-7.422 1.54-4.3 9.242-24.314 10.174-26.435.417-.95 2.545-6.514 6.274-16.406 1.538-4.082 2.978-7.861 3.199-8.398.222-.537.544-1.328.718-1.758.527-1.306 3.344-8.745 4.881-12.891 1.745-4.703 1.64-4.59 5.051-5.463 1.503-.386 4.052-1.102 5.664-1.592 1.611-.49 7.763-2.247 13.672-3.905 5.908-1.658 11.005-3.165 11.328-3.349 1.278-.731 3.692-.216 3.904.833m-52.138 6.324c.119.118.012.722-.238 1.34-.25.619-.584 1.476-.743 1.906-.38 1.023-.95 2.401-1.722 4.161-.344.784-.625 1.575-.624 1.757 0 .183-.855 2.529-1.901 5.215-1.047 2.685-2.735 7.08-3.753 9.766-1.017 2.685-2.16 5.585-2.54 6.445-.38.859-.812 2.002-.961 2.539-.149.537-.42 1.328-.602 1.758-1.158 2.736-3.917 10.031-3.917 10.357 0 .217-.369 1.226-.82 2.245-1.466 3.309-1.804 4.16-3.677 9.273-.788 2.148-1.575 4.258-1.751 4.687-.176.43-.614 1.572-.974 2.539-.36.967-.887 2.285-1.171 2.93-.285.644-.816 2.051-1.182 3.125-.796 2.343-1.038 2.96-2.105 5.367-.451 1.018-.82 2.031-.82 2.251 0 .22-.163.706-.363 1.079-.199.373-1.003 2.436-1.787 4.584-.783 2.149-1.61 4.346-1.838 4.883-.549 1.296-1.129 2.751-1.48 3.711-.158.43-.463 1.221-.68 1.758-.216.537-1.221 3.174-2.233 5.859-1.013 2.686-1.98 5.235-2.15 5.664-.17.43-.971 2.539-1.779 4.688-1.85 4.916-1.816 4.883-3.601 3.465-3.648-2.898-10.006-6.435-13.972-7.772-1.074-.362-2.304-.801-2.734-.975-.43-.175-1.221-.432-1.758-.571-.537-.14-1.592-.42-2.343-.623-6.411-1.725-21.784-2.382-28.321-1.211-1.504.27-3.789.671-5.078.892-2.387.409-3.367.615-8.203 1.723-3.941.903-11.724 3.238-13.672 4.102-.43.191-1.396.507-2.148.702-1.352.351-10.062 3.766-13.086 5.13-6.163 2.78-17.584 8.378-21.289 10.435-1.397.776-3.418 1.868-4.493 2.428-1.074.56-2.011 1.151-2.083 1.314-.072.163-.308.297-.526.297-.217 0-.862.328-1.432.729-.57.4-2.267 1.395-3.771 2.21-1.504.816-3.438 1.953-4.297 2.528-.859.575-2.485 1.542-3.613 2.148-1.128.606-2.051 1.25-2.051 1.431 0 .181-.178.329-.396.329-.219 0-2.843 1.582-5.833 3.515-2.99 1.934-5.624 3.516-5.853 3.516-.23 0-.418.143-.418.319 0 .175-.747.733-1.66 1.24-.913.507-1.748 1.023-1.856 1.146-.474.546-3.089 1.654-3.613 1.531-.499-.116 2.168-4.776 3.878-6.775.184-.215 1.026-1.446 1.872-2.735.845-1.289 1.721-2.547 1.946-2.795.225-.248 1.725-2.358 3.332-4.687 1.607-2.33 3.233-4.577 3.613-4.994.38-.416.691-.887.691-1.046 0-.159.226-.521.501-.805.276-.284.933-1.132 1.46-1.883.926-1.322 1.37-1.889 2.824-3.609.376-.444.684-.924.684-1.065 0-.142.316-.598.702-1.015.385-.416 1.748-2.161 3.027-3.876 1.279-1.716 2.709-3.562 3.177-4.102 2.205-2.544 2.469-2.874 2.471-3.092.001-.129.496-.761 1.1-1.406.604-.644 1.767-2.05 2.584-3.125.818-1.074 1.6-2.041 1.738-2.148.138-.107 1.032-1.162 1.987-2.344 1.646-2.036 4.815-5.712 9.727-11.281 1.209-1.371 3.07-3.48 4.136-4.687 3.104-3.518 24.361-24.645 27.359-27.194 1.504-1.278 3.09-2.681 3.526-3.116.436-.436 1.842-1.667 3.125-2.736 1.283-1.07 2.421-2.041 2.528-2.159.108-.118.987-.82 1.954-1.561.966-.741 1.845-1.449 1.953-1.573.107-.125.898-.744 1.757-1.377.86-.634 2.09-1.634 2.735-2.224.644-.59 1.291-1.073 1.437-1.074.146-.001.497-.225.781-.498.284-.272 1.659-1.328 3.055-2.345 1.397-1.017 2.715-1.988 2.93-2.157.215-.169 1.269-.904 2.344-1.633 1.074-.729 2.041-1.426 2.148-1.549.399-.457 8.828-5.851 9.863-6.311.591-.263 1.075-.626 1.075-.806 0-.181.263-.328.586-.328.322 0 .586-.176.586-.391 0-.215.153-.39.34-.39.187 0 2.048-.967 4.134-2.149 2.087-1.181 3.94-2.148 4.119-2.148.179 0 .384-.132.456-.293.12-.269 10.832-5.645 12.63-6.338.43-.166 1.572-.657 2.539-1.093 4.221-1.899 5.353-2.366 6.641-2.742.752-.219 2.861-.963 4.687-1.652 3.078-1.163 11.009-3.463 14.649-4.249 6.233-1.347 11.557-2.202 15.82-2.544 2.541-.203 12.449-.02 12.704.235"/>
</svg>