<svg xmlns="http://www.w3.org/2000/svg" width="400" height="400">
  <path fill="none" d="M-1-1h582v402H-1z"/>
  <ellipse cx="200.000003" cy="200.000002" fill="#7c3e7c" rx="199.500003" ry="199.500013"/>
  <path fill-rule="evenodd" d="M163.5 25.667c-5.443 1.443-13.5 6.69-13.5 8.793 0 .402-.832 1.926-1.848 3.386-1.016 1.46-2.106 3.554-2.421 4.654-1.29 4.499-5.035 14.063-5.854 14.95-.482.523-.877 1.591-.877 2.374 0 .783-1.74 4.856-3.866 9.05-7.864 15.51-9.941 19.813-13.497 27.96-2 4.584-3.637 9.405-3.637 10.713 0 1.308-.829 4.757-1.842 7.665-1.013 2.909-2.609 8.663-3.547 12.788-.938 4.125-2.55 10.875-3.582 15-1.033 4.125-2.562 10.875-3.4 15-.838 4.125-2.281 11.1-3.208 15.5s-2.027 10.475-2.444 13.5c-.416 3.025-1.482 8.565-2.367 12.312-3.596 15.215-2.23 18.267 10.623 23.745 6.718 2.863 6.672 2.641 2.64 12.667-1.72 4.277-3.481 9.126-3.914 10.776-.432 1.65-1.78 5.475-2.994 8.5-6.71 16.717-5.998 20.885 4.65 27.238 5.444 3.248 5.466 3.281 5.176 7.762l-.291 4.5-23.174-.035-23.175-.036-.499 2.536c-.701 3.567-.418 3.696 11.848 5.416 18.213 2.554 38.862 2.617 39.28.119.184-1.1.936-3.35 1.671-5s2.212-5.475 3.282-8.5c1.07-3.025 2.741-7.75 3.712-10.5.971-2.75 2.129-6.35 2.573-8 .443-1.65 1.364-4.575 2.045-6.5.682-1.925 2.003-5.75 2.937-8.5.934-2.75 2.255-6.575 2.937-8.5.681-1.925 1.591-4.85 2.022-6.5.431-1.65 1.465-4.8 2.297-7 .832-2.2 3.181-9.4 5.22-16 2.04-6.6 4.332-13.575 5.096-15.5.763-1.925 2.335-6.65 3.493-10.5 1.159-3.85 2.745-8.482 3.526-10.294.78-1.812 1.827-4.962 2.326-7 .498-2.038 1.464-5.281 2.146-7.206.681-1.925 2.003-5.75 2.937-8.5.934-2.75 2.255-6.575 2.937-8.5.681-1.925 1.602-4.85 2.045-6.5.899-3.341 3.426-10.668 6.037-17.5 2.957-7.736 3.2-10.812.952-12.015C172.8 111.217 179.454 93 185.636 93c1.722 0 2.485-.714 2.939-2.75.336-1.513 1.42-5 2.408-7.75s2.565-7.7 3.505-11c.939-3.3 2.339-7.478 3.11-9.284 1.623-3.803 1.806-6.848.461-7.68-.518-.32-1.921-2.709-3.119-5.309-1.198-2.6-2.654-5.627-3.236-6.727-.583-1.1-1.541-2.906-2.131-4.014-5.037-9.457-16.847-15.263-26.073-12.819m48.12 11.583c-.174.688-.886 2.825-1.581 4.75-.696 1.925-1.859 5.525-2.586 8-1.378 4.698-2.752 8.766-5.235 15.5-.811 2.2-1.843 5.35-2.292 7-.449 1.65-2.179 6.825-3.843 11.5-1.665 4.675-3.04 9.287-3.055 10.25-.022 1.358-.888 1.75-3.873 1.75-3.734 0-7.155 2.254-7.155 4.714 0 .582-.672 2.346-1.494 3.922-2.947 5.651-1.316 8.383 3.836 6.424 3.147-1.196 3.063.6-.425 9.125-1.054 2.577-1.917 5.375-1.917 6.216 0 .842-.617 3.009-1.372 4.815-1.681 4.025-4.546 12.239-5.68 16.284-.462 1.65-2.153 6.825-3.756 11.5-1.604 4.675-4.599 13.9-6.657 20.5s-4.361 13.575-5.118 15.5c-.757 1.925-2.339 6.65-3.515 10.5-1.176 3.85-2.986 9.363-4.02 12.25-1.035 2.887-2.726 7.613-3.757 10.5-1.032 2.887-4.228 12.675-7.104 21.75-2.876 9.075-5.848 18.075-6.604 20-.757 1.925-2.339 6.65-3.515 10.5-1.176 3.85-2.986 9.363-4.02 12.25-4.836 13.493-5.854 16.487-9.266 27.25-7.103 22.409-8.758 27.435-12.27 37.27-1.81 5.07-1.694 7.745.404 9.338 3.232 2.454 5.001 1.629 6.667-3.108.871-2.475 2.295-6.525 3.166-9 1.818-5.17 1.591-5.095 8.034-2.635 2.685 1.025 7.583 2.629 10.883 3.564 3.3.934 8.025 2.4 10.5 3.256 9.938 3.44 24.182 4.386 47 3.123 9.264-.513 11.335-.434 8 .305-2.475.548-10.575 1.31-18 1.692l-13.5.695 6.5 1.646c13.194 3.342 45.372 7.887 55.693 7.866 6.614-.013 10.702-1.736 17.092-7.202 4.184-3.58 4.472-3.552 9.955.94 4.069 3.334 5.128 3.726 9.547 3.533 6.565-.285 24.454-6.939 25.546-9.501.184-.43.866-.782 1.518-.782 5.63 0 18.747-72.467 13.436-74.238-.907-.302-.744-1.949.648-6.547 2.103-6.945 1.892-26.623-.577-53.965-1.219-13.5-2.162-17.066-3.175-12-.402 2.014.049-6.524.543-10.25.346-2.615-1.195-15.129-3.201-26-1.065-5.775-2.209-12.637-2.542-15.25-.81-6.357-3.5-5.907-3.475.582.015 3.653-5.479 26.091-8.618 35.201-.765 2.219-1.39 4.685-1.39 5.481 0 1.596-3.389 10.875-5.594 15.317-.773 1.557-1.406 3.308-1.406 3.891 0 .582-.967 3.133-2.15 5.668-1.182 2.536-3.095 6.635-4.25 9.11-1.155 2.475-2.409 4.734-2.787 5.02-.379.287-1.175 1.637-1.771 3-3.3 7.555-10.455 16.955-20.355 26.744-9.084 8.981-9.378 9.236-10.616 9.236-.589 0-1.071.457-1.071 1.016 0 .559-1.575 1.767-3.5 2.685-1.925.918-3.5 2.036-3.5 2.484 0 .448-.752.815-1.671.815s-2.382.635-3.25 1.411c-1.841 1.645-20.902 9.589-23.008 9.589-.786 0-4.386.872-8 1.937-12.089 3.565-59.587 8.881-61.575 6.892-2.639-2.638 1.137-3.553 17.304-4.193 34.479-1.365 65.691-10.015 84.504-23.419 9.563-6.813 27.696-26.569 27.696-30.174 0-.574.374-1.043.83-1.043.906 0 13.17-23.956 13.17-25.725 0-.597.854-2.816 1.898-4.93 5.225-10.581 18.999-64.334 19.179-74.845.103-5.992 2.594-15.017 4.042-14.639 5.353 1.397 13.645 1.128 16.878-.548 4.049-2.099 5.305-5.313 2.076-5.313-1.14 0-2.073.499-2.073 1.108 0 .694-.971.865-2.596.457-1.428-.358-3.192-.156-3.921.449-.972.807-1.86.767-3.323-.146-1.601-1-2.303-.994-3.535.028-1.972 1.637-3.625.609-3.625-2.255 0-3.256 1.816-4.773 4.047-3.379 1.329.83 2.153.817 3.196-.048 1.072-.89 1.689-.882 2.606.035.935.935 1.684.899 3.381-.16 1.554-.971 2.288-1.036 2.558-.225.64 1.92 3.682 1.259 4.725-1.026.589-1.291 3.089-2.952 6.199-4.12 5.833-2.19 8.203-6.173 6.441-10.824-.498-1.317-1.241-5.746-1.651-9.844-.985-9.852-4.817-19.05-7.936-19.05-.356 0-1.986-.99-3.623-2.2-4.913-3.633-18.291-3.215-24.022.75-7.386 5.11-9.921 9.615-9.921 17.632 0 3.855-.66 8.461-1.5 10.472-2.95 7.06-1.367 11.35 4.75 12.876 3.228.806 3.267 1.212 1.193 12.47-5.141 27.909-11.408 52.696-17.697 70-1.099 3.025-2.571 7.075-3.271 9-1.891 5.201-8.754 21.348-9.563 22.5-.387.55-1.926 3.25-3.421 6-8.017 14.745-22.191 31.254-31.063 36.181-8.437 4.686-22.773 11.319-24.462 11.319-1.481 0-1.159-3.697.952-10.929 2.578-8.832 4.216-15.647 5.063-21.071.387-2.475 1.389-6.975 2.228-10 .838-3.025 2.294-9.1 3.236-13.5.941-4.4 2.543-11.6 3.559-16s2.576-11.825 3.466-16.5c.89-4.675 2.498-12.163 3.574-16.641 1.076-4.477 1.956-9.357 1.956-10.843 0-1.486.885-7.048 1.967-12.359 1.616-7.936 2.017-14.558 2.25-37.157.33-32.077.79-30.38-11.459-42.28-7.442-7.229-7.417-7.151-4.708-14.72 6.867-19.191 7.581-21.988 5.885-23.061-2.115-1.339-6.949-1.133-7.315.311M182 61.147c0 12.436-12.596 22.537-19.77 15.853-1.18-1.1-2.57-2-3.087-2-2.067 0-5.143-8.093-5.143-13.531 0-6.147-.161-6.064 8.033-4.135 5.24 1.234 14.657.31 16.595-1.629 1.746-1.746 3.372.877 3.372 5.442m144.718 27.509c4.756 5.534 1.85 15.88-4.263 15.178-3.845-.441-5.653-3.972-5.147-10.051.66-7.939 4.974-10.29 9.41-5.127m-22.353.417c7.535 5.926.635 19.069-8.086 15.402C291.74 102.567 290.257 89 294.588 89c.777 0 1.412-.45 1.412-1 0-1.783 5.657-1.058 8.365 1.073m9.561 19.669c1.03 3.59.623 4.258-2.593 4.258-2.701 0-2.706-.022-1.165-5.166 1.265-4.224 2.362-3.959 3.758.908M197.846 130c.151 22.95-2.9 36.776-9.132 41.384-5.689 4.207-8.365-1.65-4.903-10.733C189.609 145.438 195 125.145 195 118.533c0-1.853.325-4.194.723-5.201 1.244-3.156 2.033 3.034 2.123 16.668m102.783 6.104c-1.136 5.68-.661 13.832 1.292 22.182 13.464 57.552 15.109 140.455 3.616 182.214-1.584 5.757-3.005 14.238-2.262 13.5 2.461-2.443 7.609-10.367 9.096-14 5.537-13.528 7.104-18.6 8.645-28 .406-2.475 1.512-9.127 2.457-14.782 2.27-13.59 1.759-66.338-.817-84.218-.911-6.325-2.354-16.675-3.205-23-1.416-10.513-2.289-15.365-6.838-38-.829-4.125-1.778-9.309-2.109-11.52-1.1-7.342-8.615-10.673-9.875-4.376m1.817 91.074c-2.462 8.131-3.069 6.455-.862-2.381 1.002-4.013 2.004-6.432 2.225-5.375.222 1.056-.391 4.547-1.363 7.756m-4.357 14.837c-1.149 2.671-2.089 5.293-2.089 5.827 0 1.753-6.032 14.459-6.596 13.895-.304-.303.14-1.889.986-3.524 1.59-3.074 3.099-7.077 6.869-18.213 1.267-3.741 2.353-5.723 2.559-4.67.198 1.006-.58 4.015-1.729 6.685M288 266c-.639 1.194-1.387 1.946-1.662 1.671-.275-.275.023-1.477.662-2.671.639-1.194 1.387-1.946 1.662-1.671.275.275-.023 1.477-.662 2.671m-3.891 6.847c-1.16 1.629-2.109 3.278-2.109 3.663 0 1.182-6.207 8.616-6.745 8.078-.277-.277.565-1.81 1.871-3.407s3.633-5.045 5.171-7.662c1.539-2.616 3.051-4.505 3.36-4.196.308.309-.388 1.895-1.548 3.524m-11.185 15.891c-5.313 6.003-14.467 14.6-19.512 18.327-5.678 4.195-8.193 5.243-4.642 1.935 1.18-1.1 2.632-2 3.226-2 .594 0 5.675-4.668 11.292-10.373 9.294-9.441 15.528-14.544 9.636-7.889m32.773 5.099c-.84 2.015-1.78 4.338-2.089 5.163-.31.825-1.943 3.75-3.629 6.5-1.687 2.75-3.317 5.756-3.622 6.681-.305.924-1.242 1.944-2.082 2.267-1.314.504-1.298.236.114-1.919 3.185-4.861 9.37-17.078 10.646-21.029.71-2.2 1.494-3.398 1.741-2.663.247.736-.239 2.986-1.079 5M67.43 309.25c1.313 10.022 4.882 15.416 11.416 17.258 7.896 2.226 8.343 2.554 2.881 2.116-4.232-.34-4.628-.206-3.5 1.184 3.248 4 5.597 6.192 6.638 6.192.624 0 1.135.367 1.135.815 0 1.221 16.795 8.784 17.58 7.916.98-1.081 3.42-8.469 3.42-10.353 0-2.124-.453-2.383-4.25-2.42-5.304-.053-16.787-2.745-12.25-2.872 1.65-.046 6.304.546 10.342 1.317l7.342 1.4 1.408-3.369c.775-1.854 1.408-4.082 1.408-4.952 0-.87.615-2.796 1.366-4.282.752-1.485 1.667-4.358 2.033-6.384l.667-3.684-4.283-.565c-2.356-.311-11.033-1.021-19.283-1.578-8.25-.557-16.8-1.447-19-1.977-5.866-1.414-5.816-1.456-5.07 4.238m172.152 6.864c-1.478 1.163-2.968 1.833-3.312 1.49-.786-.786 2.759-3.53 4.615-3.572.762-.018.175.919-1.303 2.082m50.529 4.076c-1.706 1.821-3.104 3.614-3.106 3.985-.006.873-15.054 13.849-16.935 14.603-.787.316-3.701 2.07-6.477 3.898-5.381 3.544-7.628 4.277-5.593 1.824.685-.825 1.706-1.5 2.269-1.5 2.998 0 25.731-17.344 25.731-19.632 0-.896 6.356-7.345 6.801-6.9.227.226-.984 1.902-2.69 3.722m-56.67-.722c-1.067.808-2.616 1.468-3.441 1.468-1.133 0-1.025-.359.441-1.468 1.068-.807 2.616-1.468 3.441-1.468 1.133 0 1.025.359-.441 1.468m-8.941 3.483c-8.066 3.685-15.472 6.201-17.213 5.847-.983-.2 2.038-1.596 6.713-3.102 4.675-1.506 9.175-3.172 10-3.702.825-.53 2.175-.942 3-.917.825.026-.3.869-2.5 1.874m-23.5 7.601c-2.475.78-5.85 1.388-7.5 1.352-2.628-.057-2.442-.225 1.5-1.354 6.64-1.902 12.037-1.9 6 .002m-18 3.184c-8.117 1.87-58.23 2.434-59.989.675-.785-.785 5.266-.977 21.7-.686 12.534.221 25.489-.022 28.789-.54 3.3-.517 8.25-.942 11-.944l5-.003-6.5 1.498M253 348c-1.925 1.054-4.168 1.935-4.984 1.958-.817.023.083-.832 2-1.901 1.916-1.068 4.159-1.949 4.984-1.958.825-.008-.075.847-2 1.901m-7.709 3.109c-.61.61-4.188 2.01-7.95 3.111-8.286 2.424-15.028 3.43-7.841 1.17 2.75-.865 7.025-2.387 9.5-3.382 5.393-2.168 7.921-2.529 6.291-.899M220 358.654c-2.475.801-6.975 1.657-10 1.904l-5.5.447 7-1.888c8.763-2.363 15.507-2.73 8.5-.463"/>
</svg>
