<svg xmlns="http://www.w3.org/2000/svg" width="490" height="490"><path fill="none" d="M-1-1h582v402H-1z"/><g><g fill="#26b99a"><path d="M444.5 323.3h-56v19h56c5.4 0 9.7-4.3 9.7-9.7s-4.6-9.3-9.7-9.3zM455 260.3h-66.4v19H455c8.5 0 15.5 7 15.5 15.5 0 5.4 4.3 9.7 9.7 9.7 5.4 0 9.7-4.3 9.7-9.7a35.1 35.1 0 0 0-34.9-34.5zM388.6 197.4v19h56c5.4 0 9.7-4.3 9.7-9.7s-4.3-9.7-9.7-9.7h-56v.4zM388.6 165.9H455c19 0 34.6-15.5 34.6-34.6 0-5.4-4.3-9.7-9.7-9.7a9.6 9.6 0 0 0-9.7 9.7c0 8.5-7 15.5-15.4 15.5h-66.9v19h.7v.1zM342.8 45.1c0-5.4-4.3-9.7-9.8-9.7a9.6 9.6 0 0 0-9.6 9.7v59.5h19V45.1h.4zM279.5 34.6c0-8.5 7-15.5 15.5-15.5 5.4 0 9.7-4.3 9.7-9.7S300.4.1 295 .1c-19 0-34.6 15.5-34.6 34.6v69.9h19v-70zM216.4 45.1c0-5.4-4.3-9.7-9.7-9.7s-9.6 4.3-9.6 9.7v59.5h19V45.1h.3zM131.4 19c8.5 0 15.5 7 15.5 15.5v69.9h19V34.6c0-19-15.5-34.6-34.6-34.6-5.4 0-9.7 4.3-9.7 9.7s4.3 9.3 9.8 9.3zM35.8 156.6c0 5.4 4.2 9.7 9.7 9.7H101v-17.1-1.9H45c-5-.4-9.3 3.9-9.3 9.3zM19 194.7c0-5.4-4.3-9.7-9.7-9.7S0 189.3 0 194.7c0 19 15.5 34.6 34.7 34.6H101v-19H34.7A15.8 15.8 0 0 1 19 194.7zM35.8 282.9c0 5.4 4.2 9.7 9.7 9.7H101v-19H45c-5-.4-9.3 3.8-9.3 9.3zM0 358.3c0 5.4 4.3 9.7 9.8 9.7s9.7-4.3 9.7-9.7c0-8.5 7-15.5 15.5-15.5h66v-19H34.8A34.5 34.5 0 0 0 0 358.3zM147 445.7a9.6 9.6 0 1 0 19.4 0v-53.6h-19v53.6h-.5zM210.3 455.8c0 8.2-7 14.8-15.6 14.8-5.3 0-9.6 4.3-9.6 9.7s4.3 9.7 9.7 9.7c19 0 34.6-15.2 34.6-33.8v-63.7h-19v63.3h-.1zM273.3 445.7c0 5.4 4.2 9.7 9.7 9.7 5.4 0 9.6-4.3 9.6-9.7v-53.6h-19v53.6h-.4zM358.4 470.6c-8.5 0-15.5-6.6-15.5-14.8v-63.7h-19v63.7a34.2 34.2 0 0 0 34.6 33.8c5.4 0 9.6-4.3 9.6-9.7s-4.4-9.3-9.7-9.3z"/></g><path fill="#e9573f" d="M400.6 89.4c-2-2-5.3-2-7.4 0L320 162.7l-27.7 27.7L190 292.6l-27.3 27.3-73.3 73.3a5.2 5.2 0 1 0 7.4 7.4l73.3-73.3 27.3-27.3L299.6 198l27.7-27.8 73.3-73.3c2-2 2-5.4 0-7.4z"/><path fill="#7383BF" d="M166.4 323.6V93h-41.9v272.4h272.4v-42z"/><g fill="#556080"><path d="M166.4 166.4h157.2v157.2h41.9V124.5H166.4zM93 124.5h31.5v42H93.1zM323.6 365.5h41.9v31.4h-42z"/></g></g></svg>