<svg xmlns="http://www.w3.org/2000/svg" width="300" height="233">
  <defs>
	<linearGradient id="a" gradientUnits="userSpaceOnUse">
	  <stop offset="0%" stop-color="red"/>
	  <stop offset="15%" stop-color="red"/>
	  <stop offset="35%" stop-color="#FF7B21"/>
	  <stop offset="60%" stop-color="#FF0"/>
	  <stop offset="80%" stop-color="#4FCB6B"/>
	  <stop offset="100%" stop-color="#51F7FE"/>
	</linearGradient>
  </defs>
  <path fill="url(#a)" d="M51.45844 65.25005S68.12509-.16654 170.20831 4.00012s111.24988 32.0833 111.24988 32.0833 13.33332 25.41664 16.24998 92.4999c2.91666 67.08326-9.58332 65.83326-9.58332 65.83326l-134.58319-.83333.83334-47.49995 12.08332 2.91666s21.24997-61.24993-17.91665-71.66659c-39.16663-10.41665-97.08323-12.08332-97.08323-12.08332z"/>
  <path fill="#fff" d="M27.59274 115.01852l124.81466 4.81481-3.33332 39.25921L26.852 154.27773l.74074-39.25921z"/>
  <path d="M145.7 1.1C126.5 2.4 108.2 8 91.5 17.5c-18.8 10.8-30.6 22.2-38.1 37l-4.9 9.7-11.7-.4-11.6-.5-.5 2.6c-.3 1.6-4.1 6.2-9 11.1C3.1 89.8-.8 99.9.3 116.5c1.3 18 7.5 26.8 16.5 23.4 1.4-.5 2.7-.8 2.9-.5.3.2-.5 14.1-1.6 30.7-1.2 16.6-2 30.3-1.8 30.5.1.2 12.1 1 26.6 1.8 14.5.8 26.7 1.8 27.2 2.3.5.5 1.6 6 2.4 12.3.7 6.2 1.8 11.7 2.4 12.3.9.9 36.6.6 37.6-.4.2-.3.8-5.2 1.2-10.9l.8-10.5 16.4.3c9.1.1 16.7.4 16.9.7.4.4 3.1 20.3 3.2 23.2 0 1 4.5 1.3 18.9 1.3 15.5 0 19.1-.3 20.1-1.5.9-1.1 3.3-1.5 8.6-1.5 6.3 0 7.4-.2 7.5-1.8 0-.9.6-8 1.2-15.7l1.2-14 16.6-.3 16.6-.2.6 4.7c.4 2.7.9 10.5 1.3 17.5l.7 12.8h19.3c10.7 0 19.4-.1 19.5-.3 0-.1.6-7.7 1.3-16.9.8-9.1 1.7-17.1 2-17.7.4-.6 2.9-1.1 5.6-1.1 3.6 0 5-.4 5.4-1.7 1.4-3.6 2.8-47.1 2.2-69.8-1-39.4-3.9-64.2-9.1-78-6.1-16.4-11.1-21.8-27-29.6-13.5-6.5-25.3-10.3-41.7-13.3C197.6.1 174.2-1 145.7 1.1zm59.6 6.4c29.3 4 43.2 7.6 55.7 14.4 15.6 8.4 23 19 27.6 39.5 5.7 25.6 7.3 123.8 2.1 130.4-.8 1-14.5 1.2-67.8 1-36.7-.2-66.9-.5-67.2-.8-.3-.3-.2-10.1.1-21.8.4-19.1.7-21.2 2.1-20.6.9.4 3.5.9 5.9 1.2 5.5.5 8.5-1.4 11.7-7.8 2.3-4.6 2.5-6 2.5-19 0-12.4-.3-14.9-2.5-21.2-3.2-9.2-9.8-21.4-14-25.8-2.2-2.3-3.5-4.7-3.7-7l-.3-3.5-42.1-.6c-42-.6-61.4-1.5-61.4-2.8 0-.8 5.1-10.4 5.9-11.1.3-.3 1.9-2.4 3.4-4.7C70 37.5 83.3 26 95 20c2.5-1.2 5.3-2.7 6.4-3.2 6-3.1 17.1-6.2 32.1-8.8 13.5-2.4 55.6-2.7 71.8-.5zM49.5 127.4c4.8 2 6.9 5.7 6.2 10.9-.8 6-5.1 9.7-11.3 9.7-7.9 0-12.4-3.6-12.4-9.9 0-4.7 1.7-7.9 5.2-10.1 3.9-2.4 7.6-2.5 12.3-.6zm92.7 4.5c3.4 3.8 3.6 7.6.5 12.2s-6.2 6.1-12.1 5.6c-4-.4-5.5-1-7.8-3.6-3.2-3.6-3.6-7.1-1-12.1 2.3-4.7 5.5-6.2 12.1-5.7 4.6.3 5.9.9 8.3 3.6z"/>
</svg>