<svg xmlns="http://www.w3.org/2000/svg" width="400" height="399.2" display="block">
  <g fill-rule="evenodd">
    <path fill="#860038" d="M0 199.601v199.601h400V0H0v199.601M200.748 42.09c.609.315 1.607 1.328 2.218 2.251 1.373 2.074 2.745 3.305 4.818 4.32 1.868.915 3.458 2.346 4.422 3.978.43.728 1.243 1.329 2.177 1.609 1.438.431 1.717.798 2.533 3.337.157.489.643.698 1.62.698 2.179 0 2.4.934.939 3.977-1.078 2.247-1.169 2.696-.768 3.805 1.211 3.348-1.109 8.795-4.98 11.692-2.3 1.721-2.754 5.457-.611 5.029 1.134-.227 1.591.06 5.036 3.158.437.392 1.157.784 1.601.87 15.425 2.997 23.332 9 23.356 17.731.003.962.176 2.399.385 3.193 1.38 5.242 2.015 7.997 2.015 8.746 0 .473.696 2.976 1.547 5.562 1.868 5.675 2.23 7.293 3.019 13.483.336 2.635.878 6.048 1.205 7.585 2.749 12.929 1.988 28.028-1.78 35.329-.397.769-1.114 2.475-1.593 3.793-.479 1.317-1.035 2.807-1.235 3.312-.489 1.23-.465 4.762.035 5.071.695.43.434 3.02-.427 4.23-.757 1.064-.792 1.398-.418 4.053 1.218 8.662.903 11.592-1.586 14.747-.639.811-1.162 1.651-1.162 1.868 0 2.281-9.135 8.964-10.666 7.803-1.086-.825-1.709-.67-1.709.424 0 .544-.458 2.354-1.018 4.022-1.002 2.983-1.01 3.108-.526 7.801.677 6.578.051 12.799-1.653 16.399-1.883 3.98-1.919 4.797-.32 7.23 1.229 1.869 1.705 2.938 3.507 7.87.327.895.566 4.265.664 9.381.085 4.391.364 11.218.62 15.17s.484 15.539.507 25.748l.041 18.563 2.111 3.457c2.019 3.305 2.093 3.525 1.686 4.99-.234.843-.426 2.621-.428 3.95-.006 6.416-5.554 9.328-17.817 9.352-7.604.015-9.562-2.782-6.069-8.67 1.259-2.123 2.729-6.198 3.278-9.087.125-.659.343-1.602.483-2.096.202-.708.094-.898-.509-.898-1.347 0-1.723.836-1.723 3.827 0 3.393-.524 3.829-5.419 4.516-3.457.485-25.807.845-30.906.498l-3.791-.258-.664-1.397c-2.175-4.576-2.195-4.521 2.071-5.626 4.67-1.209 15.555-6.722 15.555-7.878 0-.654-1.237-9.123-1.613-11.047-.215-1.098-.568-3.343-.786-4.99-.54-4.099-1.592-9.59-2.407-12.575-.24-.878-.586-2.226-.769-2.994-.183-.768-.728-2.745-1.211-4.391-.809-2.758-1.919-9.909-2.756-17.765-.362-3.4-1.282-9.138-2.304-14.371-1.134-5.809-1.373-7.161-1.732-9.78-.494-3.615-.962-5.307-2.011-7.28-1.019-1.915-1.252-2.977-2.39-10.884-1.201-8.347-1.541-12.249-1.949-22.355-.241-5.984-.602-10.155-1.036-11.976-.366-1.537-.741-3.195-.834-3.684-.095-.498-1.128-1.599-2.347-2.499-3.829-2.829-3.37-5.323 2.926-15.891 1.585-2.661 1.579-2.728-.275-2.977-2.766-.371-5.11-1.675-5.863-3.26-.871-1.836-1.011-1.908-2.358-1.21-1.861.966-1.633 1.121-9.506-6.481-4.048-3.909-4.796-4.957-3.922-5.497.204-.126.916-.918 1.583-1.76l1.213-1.532-1.242-1.689c-1.667-2.267-.824-3.977 5.76-11.686 3.931-4.603 4.89-4.745 8.634-1.279 3.325 3.078 3.141 3.285 3.396-3.829.106-2.964.381-6.377.612-7.585 1.014-5.298 1.521-11.78 1.14-14.571-.96-7.03.217-12.609 3.128-14.829 1.622-1.238 9.434-5.538 13.656-7.517 4.332-2.031 6.05-5.843 3.62-8.031-1.302-1.172-3.147-4.012-3.147-4.844 0-.411-.165-.917-.366-1.126-.201-.208-.462-1.457-.58-2.774-.118-1.318-.402-3.653-.632-5.19-.23-1.537-.53-3.841-.668-5.121-.216-2.014-.391-2.389-1.298-2.786-1.569-.689-1.684-1.026-1.411-4.128.234-2.663.194-2.872-.591-3.121-.76-.241-.841-.565-.84-3.334.002-4.989 2.045-7.159 4.39-4.664 1.401 1.492 1.8 1.246 2.432-1.497.624-2.709 2.139-3.818 2.633-1.927.301 1.151.656 1.059 2.966-.767 2.274-1.798 6.637-2.289 9.084-1.024m-36.231 104.687c-1.395 1.692-1.509 2.206-.65 2.919 1.017.844 1.677.171 1.965-2.004.352-2.65.201-2.755-1.315-.915"/>
    <path fill="#fff" d="M191.664 43.114c-2.31 1.826-2.665 1.918-2.966.767-.494-1.891-2.009-.782-2.633 1.927-.632 2.743-1.031 2.989-2.432 1.497-2.345-2.495-4.388-.325-4.39 4.664-.001 2.769.08 3.093.84 3.334.785.249.825.458.591 3.121-.273 3.102-.158 3.439 1.411 4.128.907.397 1.082.772 1.298 2.786.138 1.28.438 3.584.668 5.121.23 1.537.514 3.872.632 5.19.118 1.317.379 2.566.58 2.774.201.209.366.715.366 1.126 0 .832 1.845 3.672 3.147 4.844 2.43 2.188.712 6-3.62 8.031-4.222 1.979-12.034 6.279-13.656 7.517-2.911 2.22-4.088 7.799-3.128 14.829.381 2.791-.126 9.273-1.14 14.571-.231 1.208-.506 4.621-.612 7.585-.255 7.114-.071 6.907-3.396 3.829-3.744-3.466-4.703-3.324-8.634 1.279-6.584 7.709-7.427 9.419-5.76 11.686l1.242 1.689-1.213 1.532c-.667.842-1.379 1.634-1.583 1.76-.874.54-.126 1.588 3.922 5.497 7.873 7.602 7.645 7.447 9.506 6.481 1.347-.698 1.487-.626 2.358 1.21.753 1.585 3.097 2.889 5.863 3.26 1.854.249 1.86.316.275 2.977-6.296 10.568-6.755 13.062-2.926 15.891 1.219.9 2.252 2.001 2.347 2.499.093.489.468 2.147.834 3.684.434 1.821.795 5.992 1.036 11.976.408 10.106.748 14.008 1.949 22.355 1.138 7.907 1.371 8.969 2.39 10.884 1.049 1.973 1.517 3.665 2.011 7.28.359 2.619.598 3.971 1.732 9.78 1.022 5.233 1.942 10.971 2.304 14.371.837 7.856 1.947 15.007 2.756 17.765.483 1.646 1.028 3.623 1.211 4.391.183.768.529 2.116.769 2.994.815 2.985 1.867 8.476 2.407 12.575.218 1.647.571 3.892.786 4.99.376 1.924 1.613 10.393 1.613 11.047 0 1.156-10.885 6.669-15.555 7.878-4.266 1.105-4.246 1.05-2.071 5.626l.664 1.397 3.791.258c5.099.347 27.449-.013 30.906-.498 4.895-.687 5.419-1.123 5.419-4.516 0-2.991.376-3.827 1.723-3.827.603 0 .711.19.509.898-.14.494-.358 1.437-.483 2.096-.549 2.889-2.019 6.964-3.278 9.087-3.493 5.888-1.535 8.685 6.069 8.67 12.263-.024 17.811-2.936 17.817-9.352.002-1.329.194-3.107.428-3.95.407-1.465.333-1.685-1.686-4.99l-2.111-3.457-.041-18.563c-.023-10.209-.251-21.796-.507-25.748-.256-3.952-.535-10.779-.62-15.17-.098-5.116-.337-8.486-.664-9.381-1.802-4.932-2.278-6.001-3.507-7.87-1.599-2.433-1.563-3.25.32-7.23 1.704-3.6 2.33-9.821 1.653-16.399-.484-4.693-.476-4.818.526-7.801.56-1.668 1.018-3.478 1.018-4.022 0-1.094.623-1.249 1.709-.424 1.531 1.161 10.666-5.522 10.666-7.803 0-.217.523-1.057 1.162-1.868 2.489-3.155 2.804-6.085 1.586-14.747-.374-2.655-.339-2.989.418-4.053.861-1.21 1.122-3.8.427-4.23-.5-.309-.524-3.841-.035-5.071.2-.505.756-1.995 1.235-3.312.479-1.318 1.196-3.024 1.593-3.793 3.768-7.301 4.529-22.4 1.78-35.329-.327-1.537-.869-4.95-1.205-7.585-.789-6.19-1.151-7.808-3.019-13.483-.851-2.586-1.547-5.089-1.547-5.562 0-.749-.635-3.504-2.015-8.746-.209-.794-.382-2.231-.385-3.193-.024-8.731-7.931-14.734-23.356-17.731-.444-.086-1.164-.478-1.601-.87-3.445-3.098-3.902-3.385-5.036-3.158-2.143.428-1.689-3.308.611-5.029 3.871-2.897 6.191-8.344 4.98-11.692-.401-1.109-.31-1.558.768-3.805 1.461-3.043 1.24-3.977-.939-3.977-.977 0-1.463-.209-1.62-.698-.816-2.539-1.095-2.906-2.533-3.337-.934-.28-1.747-.881-2.177-1.609-.964-1.632-2.554-3.063-4.422-3.978-2.073-1.015-3.445-2.246-4.818-4.32-2.298-3.474-7.716-4.062-11.302-1.227m-25.832 104.578c-.288 2.175-.948 2.848-1.965 2.004-.859-.713-.745-1.227.65-2.919 1.516-1.84 1.667-1.735 1.315.915"/>
  </g>
</svg>
