<svg xmlns="http://www.w3.org/2000/svg" version="1" width="190pt" height="140pt" viewBox="0 0 380 280">
    <path fill="#860038" d="M47.4 8.4c-1.3 1-2.3 1.1-3.1.4-.9-.7-1.4-.3-1.9 1.6-.5 2.2-.9 2.4-2.1 1.5-2.5-2.2-3.6.4-2.8 7 .4 3.4 1 6.1 1.4 6.1.5 0 1.3 3.4 1.9 7.6.5 4.1 1.7 8.3 2.6 9.3 3.3 3.6 2 5.7-5.8 10-4 2.3-8 4.9-8.7 5.8-.9 1-1.4 4.5-1.5 9.7 0 4.5-.4 11.8-.9 16.3l-.8 8.1-2.8-2.1-2.9-2.1-2.4 2.4c-1.4 1.2-3.7 4-5.2 6.1-2.2 3.2-2.4 4.1-1.4 5.4 1 1.3 1 1.9-.4 3.4-1.5 1.7-1.4 2.1 3.3 6.4 2.8 2.6 5.9 4.7 7 4.7 1.1 0 2.3.5 2.6 1.1.4.5 1.8 1.4 3.1 1.9l2.3.9-2.9 6.3-3 6.2 2.6 2.7c2.4 2.6 2.7 3.8 4 19 1.4 17.3 2 21.2 3.4 24.4 1 2.3 4.6 21.9 5.6 31 .3 3.3 1.4 9.1 2.5 13 1 3.8 2.5 11.5 3.5 16.9l1.6 9.9-2.3 1.9c-1.3 1-5 2.8-8.1 3.9-6 2.2-6.7 3.3-4.5 6.3 1.2 1.7 2.7 1.8 16.3 1.4 8.2-.3 15.7-.9 16.8-1.3 1.7-.8 1.7-.6.2 2.3-3.5 6.8-1.1 9.4 8 8.5 6.2-.6 10.1-2 10.9-4.1 1.5-3.5 1.5-8.3 0-11.2-1.1-2.1-1.5-6.4-1.6-16.7 0-7.6-.4-20.6-.8-28.8-.5-12.6-1-15.7-2.9-19.6-2.1-4.3-2.1-4.8-.7-8.2.9-2.2 1.5-6.8 1.5-11.4 0-10.1.6-12.3 3.4-12.3 2.3 0 6-3.4 9.1-8.2 1.3-2.1 1.8-5.4 2-13.5.2-8 .8-12.2 2.3-16.3 4.3-11.5 3.6-26.1-2.3-48.5-1.3-5-2.7-11.2-3-13.9-.5-3.4-1.4-5.6-3.3-7.3-2.7-2.5-10.5-6.3-12.9-6.3-1.2 0-6.8-2.6-10.2-4.7-.2-.1.5-1.4 1.5-2.9 4.6-6.4 5.3-7.9 4.8-10-.3-1.2 0-3.2.6-4.4 1-1.8.9-2.2-.9-2.7-1.2-.3-2.1-1.2-2.1-1.9 0-.8-.4-1.4-1-1.4-.5 0-2-1-3.3-2.3-10-9.2-12.3-10.2-16.3-7.3zm12.1 6.3c3.5 2.7 6.6 5.8 7 7 .3 1.3.9 2.3 1.4 2.3 1.7 0-.6 9.4-2.8 11.1-2.7 2.2-3.4 8.4-.9 8.4.9 0 2.4.8 3.5 1.7 1 .9 3.5 2 5.6 2.3 2.1.4 5.9 2.2 8.5 3.9 4.4 3 4.7 3.6 7.9 13.6 6.7 20.9 7.8 42.2 2.9 57.2-2.3 7.3-2.5 10.1-1.1 18.9.5 3.7.3 5.4-1.4 8.7-3.1 6-9 9.5-9.2 5.4-.1-2.5-3 7.4-4.1 14.3-.5 3.3-1.6 8.4-2.5 11.4-1.4 5.2-1.4 5.5 1 11 2.3 5.2 2.5 7.3 3.2 28.1.4 12.4.7 24.9.6 27.8-.2 3.9.4 6.3 1.9 8.8 1.7 3 1.9 4.1 1 7.4-1.1 4.3-3.5 5.6-11.3 6.3-5.6.5-6.6-.6-4.4-5 2.3-4.3 3.3-12.3 1.6-12.3-2.7 0-4.1 1.7-3.4 3.9 1 3.1-2.3 3.9-17.6 4.2-11.8.2-13.4 0-13.7-1.4-.2-1 .1-1.7.7-1.7 2.9 0 13.9-6.2 14.4-8.1.7-2.6-1.9-20.6-3.9-27.4-.8-2.8-2.5-12.8-3.9-22.3-1.4-9.7-3.3-19.2-4.4-21.6-2.3-5.4-2.9-9-3.6-23.6-.7-13.3-1.9-18.7-4.7-20.9-1.7-1.5-1.8-2-.7-4.6.7-1.7 2.1-4.1 3-5.5.9-1.4 1.9-3.5 2.3-4.7.6-1.9.3-2.1-2.6-2-2.6.2-3.5-.3-4.6-2.6-1-2.1-1.8-2.6-3.5-2.2-1.6.5-3.1-.3-5.6-2.9-2.9-3-3.2-3.8-2.1-5.1 1.1-1.3 1-1.8-.3-3.3-1.5-1.7-1.4-2.1 2.1-6.3 3.6-4.4 3.9-4.5 6-3.1s2.2 1.6.6 3.3c-1.6 1.8-1.6 2 .1 3.9 2.4 2.7 4.2 2.5 4.9-.5 1.7-6.9 3-19 3.1-28.5V59.6l8.3-4.6c9.5-5.2 10.7-7.1 7.1-12.1-1.3-1.9-2.8-6.2-3.5-10.7-.8-4.2-1.8-7.8-2.3-8.1-.5-.3-1.2-3.1-1.6-6.1-.7-5.1-.6-5.4 1-4 1.5 1.2 1.9 1.2 2.9-.1 1.4-1.9 5.5-3.7 8.4-3.8 1.3-.1 5.2 2 8.7 4.6zM25.3 96.5c-.3.9-.8 1.4-1 1.1-.3-.3-.2-.9.2-1.5.9-1.6 1.5-1.3.8.4zm41.4 161.7c-.3.7-.5.2-.5-1.2s.2-1.9.5-1.3c.2.7.2 1.9 0 2.5zm66.8-150.3c-.3.2-.5 2.4-.5 4.8 0 4.7 1.4 5.8 2.4 1.8.7-2.9 3.3-3.8 9.7-3.3l4.4.3.3 5.5c.2 3 .1 11-.3 17.8-.7 11.8-.8 12.4-3.1 13.2-4.7 1.8-2.5 3 5.6 3s10.3-1.2 5.5-3l-2.5-1v-36h5.9c5.7 0 9.1 1.5 9.1 4.1 0 .5.5.9 1 .9 1.1 0 1.3-6 .2-7.5-.7-1-36.8-1.6-37.7-.6zm49 7.1c.3.5 1.2 1 2 1 2.1 0 2.5 2.5 2.5 16.6 0 12.1-.2 13.6-2 15.4-1.1 1.1-2 2.2-2 2.5 0 1 12.9.5 13.5-.5.3-.6-.3-1-1.4-1-2.9 0-4.2-3.3-3.9-9.8l.3-5.7h19l-.3 7c-.2 4.5-.9 7.4-1.8 8.1-2.5 2-1.5 2.4 5.1 2.4 6.7 0 8.1-.8 4.3-2.5-2.2-1-2.3-1.5-2.6-16.3-.2-12.9 0-15.3 1.3-15.8 3.2-1.3 1.3-2.4-4-2.4-5.8 0-6.6.5-3.8 2.5 1.4 1 1.8 2.8 1.8 7.7v6.3h-19v-6.3c0-4.9.4-6.7 1.8-7.7 2.8-2.1 2-2.5-4.9-2.5-4.1 0-6.3.4-5.9 1zm48.5-.5c0 .3 1.1 1 2.5 1.5l2.5 1v15c0 13.9-.1 15.1-2 16.2-1.1.7-2 1.6-2 2 0 .5 5.4.8 11.9.8 11.7 0 12-.1 14-2.6s2.8-5.4 1.6-5.4c-.3 0-1.8.9-3.3 2-1.5 1.1-5.2 2.3-8.1 2.7-4.6.5-5.6.3-6.7-1.2-1.8-2.4-1.8-9.6-.1-11.9 1.9-2.6 10.2-1.3 11.2 1.7.6 1.7.9.9 1.5-3.3.9-6.1.6-7.2-1.3-4.5-.9 1.1-3.1 1.9-6.5 2.3l-5.2.5v-14.4l6.3.3c5.3.3 6.3.6 7.2 2.5 1.5 3.5 2.5 2.8 2.5-1.7v-4h-13c-7.1 0-13 .2-13 .5zM165.9 166c-4.8 2.5-9.6 8.1-10.8 12.7-2.7 9.7-.2 20.6 5.6 24.9 7.2 5.3 18.3 5.9 27.4 1.6l5.9-2.7v-6.2c0-7 .6-9.3 2.6-9.3.8 0 1.4-.5 1.4-1 0-.6-3.5-1-8.5-1s-8.5.4-8.5 1c0 .5 1.1 1 2.4 1 3.6 0 5.6 2.6 5.6 7.1 0 7.9-4.6 11.4-13.8 10.7-4.9-.4-6-1-9.3-4.5-8.5-9.1-7.7-25.8 1.4-31.3 3.9-2.4 12.5-2.7 16.6-.5 1.6.8 4.5 3.3 6.5 5.6 2 2.4 3.8 4 4.1 3.8 1-1-.8-11-1.9-10.6-.6.2-2.9-.4-5.1-1.4-5.5-2.5-16.7-2.5-21.6.1zm45.6 5c-.2.4.7 1.2 2 1.8 2.5 1.2 2.5 1.2 2.5 15.7 0 13.2-.2 14.7-2 16.5-1.1 1.1-1.9 2-1.7 2.1.1 0 5.2.2 11.4.4 10.9.4 11.2.3 13.7-2.2 4-3.9 3.4-7.2-.6-3.6-1.3 1.2-4.2 1.9-8.9 2.1-6.2.4-6.9.2-7-1.4-.1-1.1-.1-7.8 0-14.9.2-11.6.4-13.1 2.2-14.4 1-.7 1.9-1.7 1.9-2 0-1-12.9-1-13.5-.1zm54.8 6.7c-10.2 22.2-12.4 26.7-14 27.9-2.2 1.6-2.1 1.6 4.5 1.9 3.8.1 5.2-.2 5.2-1.1 0-.8-.7-1.4-1.5-1.4-1.9 0-1.9-2 .1-7l1.6-4h13.6l1.8 4.6c1.4 3.6 1.5 5 .6 6.4-1 1.7-.6 1.9 4.6 2.2 6.7.5 8.2-.3 4.9-2.5-2.3-1.5-7.8-13.1-13.8-29.2-1.1-3-2.5-5.5-3-5.5-.6 0-2.6 3.5-4.6 7.7zm6.2 7.1c1.6 3.7 1.7 4.5.4 5.3-1.7 1.1-7.6 1.2-8.2.1-.8-1.2 4.3-11.6 5.1-10.6.5.5 1.7 2.8 2.7 5.2zm36.9-13.8c-3.3 1.3-5.4 5-5.4 9.3 0 4.7 3.1 7.9 9.9 10.2 6.9 2.2 9.1 4.1 9.1 7.6 0 4.2-3.1 6.9-8 6.9-4.2 0-6.3-1.4-10.3-7l-1.8-2.5.5 4.5c.6 5.8 3.2 8 9.6 8 6.6 0 9.6-1.3 12-5.2 4.5-7.4 1.6-13.2-8.5-17.3-7.3-2.9-10.3-6.2-8.5-9.4 1.4-2.7 5.3-4.3 8.6-3.5 1.3.4 3.8 2.2 5.4 4.2 1.6 2 3.2 3.3 3.5 3 .3-.3.3-2.3-.1-4.6-.6-3.6-.9-4-4.3-4.6-4.9-.8-9.2-.7-11.7.4zm37.1 2.3c-6.4 6.4-3.7 13.2 7 17.2 5.7 2.1 9.5 5.1 9.5 7.5 0 1-.9 2.9-2.1 4.4-3.9 5-13.5 2.5-16-4.2-1.5-3.9-3-1.4-1.9 3.2 1.1 5.2 2 5.9 8.5 6.4 8.8.7 13.4-2.2 14.7-9.2 1.3-6.5-1.7-9.9-11.7-13.7-5.9-2.2-8-4.7-7.1-8.4 1.4-5.5 12.2-4.8 14.8.9 1.6 3.6 2.8 3.2 2.8-.7 0-4.9-1.1-5.7-8.3-6.4-6.6-.6-6.6-.6-10.2 3zM124 219.8c0 .4 1 1.2 2.3 1.7 2.1 1 2.2 1.4 2.5 18.2l.2 17.2-2.7 2.5-2.8 2.6h8.3c4.8 0 8.2-.4 8.2-1s-.4-1-1-1c-.5 0-1.9-.9-3-2-1.6-1.6-2-3.3-2-9v-7h6.5c6.2 0 6.6.2 7.6 2.6 1.4 3.8 2.3 2.2 2.5-4.6.1-6.4-.4-7.2-2.4-4-1.1 1.8-2.1 2.1-7.5 1.8-7.1-.3-7.4-.9-6.2-10.5l.6-5.3h5.4c6.9 0 10.5 1.4 10.5 4 0 1.1.4 2 .9 2 1 0 2.1-3.4 2.1-6.8 0-2.2-.1-2.2-15-2.2-8.2 0-15 .3-15 .8zm160.8 4.9c-3.4.5-7.5 4.4-8.4 7.8-.9 3.4 1.5 8.6 4.7 10.2 1.3.7 5 2.3 8.1 3.7 6.6 2.8 8.2 5.8 5.4 10.1-3.4 5.1-11.5 4.3-15.4-1.5-3.2-4.8-4.6-5.1-3.7-.9 1.1 5.3 3.1 7.7 7 8.5 8.4 1.5 14.7-1.8 16.5-8.7 1.8-6.5-1.6-11-10.2-13.8-8.1-2.7-11.3-8.2-6.6-11.5 4-2.8 7.7-2 12 2.5l3.9 4.1-.3-4.3c-.3-3.6-.7-4.4-2.8-4.9-5-1.3-7.6-1.6-10.2-1.3zm-117.2 1.2c-.3.5.5 1.2 1.9 1.5l2.5.6v14.4c0 15.2-.4 17.6-2.6 17.6-.8 0-1.4.4-1.4 1s3 1 7 1c7.2 0 8.7-.8 4.8-2.5-2.2-1-2.3-1.5-2.6-15.6-.2-12.1 0-14.8 1.3-15.9.8-.7 1.5-1.6 1.5-2.1 0-1.2-11.7-1.2-12.4 0zm26.4 0c0 .5.9 1.3 2 1.6 1.9.6 2 1.5 2 15.9 0 14.8-.1 15.4-2.2 16.9-2.1 1.5-1.5 1.6 9.9 1.6 11.3.1 12.4-.1 14.3-2.1 1.1-1.2 2-3 2-4 0-1.7-.2-1.7-3 .4-2.2 1.6-4.9 2.3-9.5 2.6l-6.5.4v-15.1c0-14 .1-15.2 2-16.3 3.4-2.1 2.3-2.8-4.5-2.8-3.6 0-6.5.4-6.5.9zm39.6 0c-.3.5.5 1.2 1.9 1.5l2.5.6v14.4c0 15.2-.4 17.6-2.6 17.6-.8 0-1.4.4-1.4 1s4.6 1 11.8 1c11.1 0 12-.1 14-2.3 1.2-1.3 2.2-3.1 2.2-4 0-1.6-.4-1.5-3 .5-2.2 1.6-4.9 2.3-9.5 2.6l-6.5.4V245h5c3.9 0 5.2.4 6 2 1.8 3.3 2.5 2.3 2.7-3.5.2-5.8-.4-6.7-2.5-3.5-.9 1.6-2.3 2-6.2 2h-5v-14.1l6.3.3c5.3.3 6.3.6 7.2 2.5.5 1.3 1.3 2.3 1.6 2.3.8 0 1.8-6.2 1.2-7.3-.6-1-25.1-.9-25.7.2z"/>
</svg>